# xmcd
#
# Track frame offsets: 
#        183
#        14788
#        26660
#        39823
#        52830
#        68678
#        88243
#        103293
#        115165
#        134278
#        146318
#        158598
#        171005
#        182408
#        193848
#        211553
#        230113
#        244800
#        260820
#        277408
#
# Disc length: 3854 seconds
#
# Revision: 9
# Processed by: cddbd v1.5.2PL0 Copyright (c) Steve Scherf et al.
# Submitted via: ExactAudioCopy v1.3
#
DISCID=1f0f0c14
DTITLE=Various Artist - The Besst Country Album In The World Ever.. -
DTITLE=Disc 1
DYEAR=1994
DGENRE=Country
TTITLE0=Glen Campbell -  Rhinestone Cowboy
TTITLE1=Dolly Parton -  Jolene
TTITLE2=Dr Hook -  When You're In Love With A Beautiful Woman
TTITLE3=Lynn Anderson -  Rose Garden
TTITLE4=Billie Jo Spears -  Blanket On The Ground
TTITLE5=Kenny Rogers -  Coward Of The County
TTITLE6=Don Williams -  I Recall A Gypsy Woman
TTITLE7=Charlie Rich -  The Most Beautiful Girl
TTITLE8=Bobbie Gentry -  Ode To Billy Joe
TTITLE9=Tammy Wynette -  Stand By Your Man
TTITLE10=Patsy Cline -  Crazy
TTITLE11=Jim Reeves  -  I Love You Because
TTITLE12=Crystal Gayle -  Don't It Make My Brown Eyes Blue
TTITLE13=Bobbie Gentry and Glen Campbell -  All I Have To Do Is Dream
TTITLE14=Lee Greenwood -  The Wind Beneath My Wings
TTITLE15=Juice Newton -  Angel Of The Morning
TTITLE16=Olivia Newton-John -  Banks Of The Ohio
TTITLE17=Rita Coolidge -  We're All Alone
TTITLE18=Don McLean  -  Crying
TTITLE19=Skeeter Davis -  The End Of The World
EXTD=YEAR: 1994
EXTT0=
EXTT1=
EXTT2=
EXTT3=
EXTT4=
EXTT5=
EXTT6=
EXTT7=
EXTT8=
EXTT9=
EXTT10=
EXTT11=
EXTT12=
EXTT13=
EXTT14=
EXTT15=
EXTT16=
EXTT17=
EXTT18=
EXTT19=
PLAYORDER=
